<mxfile host="app.diagrams.net" agent="Mozilla/5.0 (Windows NT 10.0; Win64; x64) AppleWebKit/537.36 (KHTML, like Gecko) Chrome/138.0.0.0 Safari/537.36" version="28.0.7">
  <diagram name="Page-1" id="Y7cnKi-A6UzTc10SZ_BY">
    <mxGraphModel dx="1209" dy="765" grid="1" gridSize="10" guides="1" tooltips="1" connect="1" arrows="1" fold="1" page="1" pageScale="1" pageWidth="1654" pageHeight="2336" math="0" shadow="0">
      <root>
        <mxCell id="0" />
        <mxCell id="1" parent="0" />
        <mxCell id="ddQr5u84HXoleU1goJ65-16" value="&lt;font style=&quot;font-size: 19px;&quot;&gt;&lt;b&gt;gold.dim_customers&lt;/b&gt;&lt;/font&gt;" style="shape=table;startSize=30;container=1;collapsible=1;childLayout=tableLayout;fixedRows=1;rowLines=0;fontStyle=0;align=center;resizeLast=1;html=1;rounded=1;fillColor=#fff2cc;strokeColor=default;fontSize=16;arcSize=0;" parent="1" vertex="1">
          <mxGeometry x="320" y="270" width="200" height="438" as="geometry" />
        </mxCell>
        <mxCell id="ddQr5u84HXoleU1goJ65-17" value="" style="shape=tableRow;horizontal=0;startSize=0;swimlaneHead=0;swimlaneBody=0;fillColor=none;collapsible=0;dropTarget=0;points=[[0,0.5],[1,0.5]];portConstraint=eastwest;top=0;left=0;right=0;bottom=1;fontSize=16;fontStyle=1;align=left;" parent="ddQr5u84HXoleU1goJ65-16" vertex="1">
          <mxGeometry y="30" width="200" height="39" as="geometry" />
        </mxCell>
        <mxCell id="ddQr5u84HXoleU1goJ65-18" value="PK" style="shape=partialRectangle;connectable=0;fillColor=none;top=0;left=0;bottom=0;right=0;fontStyle=1;overflow=hidden;whiteSpace=wrap;html=1;fontSize=16;align=left;" parent="ddQr5u84HXoleU1goJ65-17" vertex="1">
          <mxGeometry width="30" height="39" as="geometry">
            <mxRectangle width="30" height="39" as="alternateBounds" />
          </mxGeometry>
        </mxCell>
        <mxCell id="ddQr5u84HXoleU1goJ65-19" value="customer_key" style="shape=partialRectangle;connectable=0;fillColor=none;top=0;left=0;bottom=0;right=0;align=left;spacingLeft=6;fontStyle=5;overflow=hidden;whiteSpace=wrap;html=1;fontSize=16;" parent="ddQr5u84HXoleU1goJ65-17" vertex="1">
          <mxGeometry x="30" width="170" height="39" as="geometry">
            <mxRectangle width="170" height="39" as="alternateBounds" />
          </mxGeometry>
        </mxCell>
        <mxCell id="ddQr5u84HXoleU1goJ65-20" value="" style="shape=tableRow;horizontal=0;startSize=0;swimlaneHead=0;swimlaneBody=0;fillColor=none;collapsible=0;dropTarget=0;points=[[0,0.5],[1,0.5]];portConstraint=eastwest;top=0;left=0;right=0;bottom=0;fontSize=16;fontStyle=1;align=left;" parent="ddQr5u84HXoleU1goJ65-16" vertex="1">
          <mxGeometry y="69" width="200" height="39" as="geometry" />
        </mxCell>
        <mxCell id="ddQr5u84HXoleU1goJ65-21" value="" style="shape=partialRectangle;connectable=0;fillColor=none;top=0;left=0;bottom=0;right=0;editable=1;overflow=hidden;whiteSpace=wrap;html=1;fontSize=16;fontStyle=1;align=left;" parent="ddQr5u84HXoleU1goJ65-20" vertex="1">
          <mxGeometry width="30" height="39" as="geometry">
            <mxRectangle width="30" height="39" as="alternateBounds" />
          </mxGeometry>
        </mxCell>
        <mxCell id="ddQr5u84HXoleU1goJ65-22" value="customer_id" style="shape=partialRectangle;connectable=0;fillColor=none;top=0;left=0;bottom=0;right=0;align=left;spacingLeft=6;overflow=hidden;whiteSpace=wrap;html=1;fontSize=16;fontStyle=1" parent="ddQr5u84HXoleU1goJ65-20" vertex="1">
          <mxGeometry x="30" width="170" height="39" as="geometry">
            <mxRectangle width="170" height="39" as="alternateBounds" />
          </mxGeometry>
        </mxCell>
        <mxCell id="ddQr5u84HXoleU1goJ65-23" value="" style="shape=tableRow;horizontal=0;startSize=0;swimlaneHead=0;swimlaneBody=0;fillColor=none;collapsible=0;dropTarget=0;points=[[0,0.5],[1,0.5]];portConstraint=eastwest;top=0;left=0;right=0;bottom=0;fontSize=16;fontStyle=1;align=left;" parent="ddQr5u84HXoleU1goJ65-16" vertex="1">
          <mxGeometry y="108" width="200" height="39" as="geometry" />
        </mxCell>
        <mxCell id="ddQr5u84HXoleU1goJ65-24" value="" style="shape=partialRectangle;connectable=0;fillColor=none;top=0;left=0;bottom=0;right=0;editable=1;overflow=hidden;whiteSpace=wrap;html=1;fontSize=16;fontStyle=1;align=left;" parent="ddQr5u84HXoleU1goJ65-23" vertex="1">
          <mxGeometry width="30" height="39" as="geometry">
            <mxRectangle width="30" height="39" as="alternateBounds" />
          </mxGeometry>
        </mxCell>
        <mxCell id="ddQr5u84HXoleU1goJ65-25" value="customer_number" style="shape=partialRectangle;connectable=0;fillColor=none;top=0;left=0;bottom=0;right=0;align=left;spacingLeft=6;overflow=hidden;whiteSpace=wrap;html=1;fontSize=16;fontStyle=1" parent="ddQr5u84HXoleU1goJ65-23" vertex="1">
          <mxGeometry x="30" width="170" height="39" as="geometry">
            <mxRectangle width="170" height="39" as="alternateBounds" />
          </mxGeometry>
        </mxCell>
        <mxCell id="ddQr5u84HXoleU1goJ65-26" value="" style="shape=tableRow;horizontal=0;startSize=0;swimlaneHead=0;swimlaneBody=0;fillColor=none;collapsible=0;dropTarget=0;points=[[0,0.5],[1,0.5]];portConstraint=eastwest;top=0;left=0;right=0;bottom=0;fontSize=16;fontStyle=1;align=left;" parent="ddQr5u84HXoleU1goJ65-16" vertex="1">
          <mxGeometry y="147" width="200" height="39" as="geometry" />
        </mxCell>
        <mxCell id="ddQr5u84HXoleU1goJ65-27" value="" style="shape=partialRectangle;connectable=0;fillColor=none;top=0;left=0;bottom=0;right=0;editable=1;overflow=hidden;whiteSpace=wrap;html=1;fontSize=16;fontStyle=1;align=left;" parent="ddQr5u84HXoleU1goJ65-26" vertex="1">
          <mxGeometry width="30" height="39" as="geometry">
            <mxRectangle width="30" height="39" as="alternateBounds" />
          </mxGeometry>
        </mxCell>
        <mxCell id="ddQr5u84HXoleU1goJ65-28" value="first_name" style="shape=partialRectangle;connectable=0;fillColor=none;top=0;left=0;bottom=0;right=0;align=left;spacingLeft=6;overflow=hidden;whiteSpace=wrap;html=1;fontSize=16;fontStyle=1" parent="ddQr5u84HXoleU1goJ65-26" vertex="1">
          <mxGeometry x="30" width="170" height="39" as="geometry">
            <mxRectangle width="170" height="39" as="alternateBounds" />
          </mxGeometry>
        </mxCell>
        <mxCell id="ddQr5u84HXoleU1goJ65-39" value="" style="shape=tableRow;horizontal=0;startSize=0;swimlaneHead=0;swimlaneBody=0;fillColor=none;collapsible=0;dropTarget=0;points=[[0,0.5],[1,0.5]];portConstraint=eastwest;top=0;left=0;right=0;bottom=0;fontSize=16;fontStyle=1;align=left;" parent="ddQr5u84HXoleU1goJ65-16" vertex="1">
          <mxGeometry y="186" width="200" height="39" as="geometry" />
        </mxCell>
        <mxCell id="ddQr5u84HXoleU1goJ65-40" value="" style="shape=partialRectangle;connectable=0;fillColor=none;top=0;left=0;bottom=0;right=0;editable=1;overflow=hidden;whiteSpace=wrap;html=1;fontSize=16;fontStyle=1;align=left;" parent="ddQr5u84HXoleU1goJ65-39" vertex="1">
          <mxGeometry width="30" height="39" as="geometry">
            <mxRectangle width="30" height="39" as="alternateBounds" />
          </mxGeometry>
        </mxCell>
        <mxCell id="ddQr5u84HXoleU1goJ65-41" value="last_name" style="shape=partialRectangle;connectable=0;fillColor=none;top=0;left=0;bottom=0;right=0;align=left;spacingLeft=6;overflow=hidden;whiteSpace=wrap;html=1;fontSize=16;fontStyle=1" parent="ddQr5u84HXoleU1goJ65-39" vertex="1">
          <mxGeometry x="30" width="170" height="39" as="geometry">
            <mxRectangle width="170" height="39" as="alternateBounds" />
          </mxGeometry>
        </mxCell>
        <mxCell id="ddQr5u84HXoleU1goJ65-42" value="" style="shape=tableRow;horizontal=0;startSize=0;swimlaneHead=0;swimlaneBody=0;fillColor=none;collapsible=0;dropTarget=0;points=[[0,0.5],[1,0.5]];portConstraint=eastwest;top=0;left=0;right=0;bottom=0;fontSize=16;fontStyle=1;align=left;" parent="ddQr5u84HXoleU1goJ65-16" vertex="1">
          <mxGeometry y="225" width="200" height="39" as="geometry" />
        </mxCell>
        <mxCell id="ddQr5u84HXoleU1goJ65-43" value="" style="shape=partialRectangle;connectable=0;fillColor=none;top=0;left=0;bottom=0;right=0;editable=1;overflow=hidden;whiteSpace=wrap;html=1;fontSize=16;fontStyle=1;align=left;" parent="ddQr5u84HXoleU1goJ65-42" vertex="1">
          <mxGeometry width="30" height="39" as="geometry">
            <mxRectangle width="30" height="39" as="alternateBounds" />
          </mxGeometry>
        </mxCell>
        <mxCell id="ddQr5u84HXoleU1goJ65-44" value="country" style="shape=partialRectangle;connectable=0;fillColor=none;top=0;left=0;bottom=0;right=0;align=left;spacingLeft=6;overflow=hidden;whiteSpace=wrap;html=1;fontSize=16;fontStyle=1" parent="ddQr5u84HXoleU1goJ65-42" vertex="1">
          <mxGeometry x="30" width="170" height="39" as="geometry">
            <mxRectangle width="170" height="39" as="alternateBounds" />
          </mxGeometry>
        </mxCell>
        <mxCell id="ddQr5u84HXoleU1goJ65-45" value="" style="shape=tableRow;horizontal=0;startSize=0;swimlaneHead=0;swimlaneBody=0;fillColor=none;collapsible=0;dropTarget=0;points=[[0,0.5],[1,0.5]];portConstraint=eastwest;top=0;left=0;right=0;bottom=0;fontSize=16;fontStyle=1;align=left;" parent="ddQr5u84HXoleU1goJ65-16" vertex="1">
          <mxGeometry y="264" width="200" height="39" as="geometry" />
        </mxCell>
        <mxCell id="ddQr5u84HXoleU1goJ65-46" value="" style="shape=partialRectangle;connectable=0;fillColor=none;top=0;left=0;bottom=0;right=0;editable=1;overflow=hidden;whiteSpace=wrap;html=1;fontSize=16;fontStyle=1;align=left;" parent="ddQr5u84HXoleU1goJ65-45" vertex="1">
          <mxGeometry width="30" height="39" as="geometry">
            <mxRectangle width="30" height="39" as="alternateBounds" />
          </mxGeometry>
        </mxCell>
        <mxCell id="ddQr5u84HXoleU1goJ65-47" value="marital_status" style="shape=partialRectangle;connectable=0;fillColor=none;top=0;left=0;bottom=0;right=0;align=left;spacingLeft=6;overflow=hidden;whiteSpace=wrap;html=1;fontSize=16;fontStyle=1" parent="ddQr5u84HXoleU1goJ65-45" vertex="1">
          <mxGeometry x="30" width="170" height="39" as="geometry">
            <mxRectangle width="170" height="39" as="alternateBounds" />
          </mxGeometry>
        </mxCell>
        <mxCell id="ddQr5u84HXoleU1goJ65-48" value="" style="shape=tableRow;horizontal=0;startSize=0;swimlaneHead=0;swimlaneBody=0;fillColor=none;collapsible=0;dropTarget=0;points=[[0,0.5],[1,0.5]];portConstraint=eastwest;top=0;left=0;right=0;bottom=0;fontSize=16;fontStyle=1;align=left;" parent="ddQr5u84HXoleU1goJ65-16" vertex="1">
          <mxGeometry y="303" width="200" height="39" as="geometry" />
        </mxCell>
        <mxCell id="ddQr5u84HXoleU1goJ65-49" value="" style="shape=partialRectangle;connectable=0;fillColor=none;top=0;left=0;bottom=0;right=0;editable=1;overflow=hidden;whiteSpace=wrap;html=1;fontSize=16;fontStyle=1;align=left;" parent="ddQr5u84HXoleU1goJ65-48" vertex="1">
          <mxGeometry width="30" height="39" as="geometry">
            <mxRectangle width="30" height="39" as="alternateBounds" />
          </mxGeometry>
        </mxCell>
        <mxCell id="ddQr5u84HXoleU1goJ65-50" value="gender" style="shape=partialRectangle;connectable=0;fillColor=none;top=0;left=0;bottom=0;right=0;align=left;spacingLeft=6;overflow=hidden;whiteSpace=wrap;html=1;fontSize=16;fontStyle=1" parent="ddQr5u84HXoleU1goJ65-48" vertex="1">
          <mxGeometry x="30" width="170" height="39" as="geometry">
            <mxRectangle width="170" height="39" as="alternateBounds" />
          </mxGeometry>
        </mxCell>
        <mxCell id="ddQr5u84HXoleU1goJ65-51" value="" style="shape=tableRow;horizontal=0;startSize=0;swimlaneHead=0;swimlaneBody=0;fillColor=none;collapsible=0;dropTarget=0;points=[[0,0.5],[1,0.5]];portConstraint=eastwest;top=0;left=0;right=0;bottom=0;fontSize=16;fontStyle=1;align=left;" parent="ddQr5u84HXoleU1goJ65-16" vertex="1">
          <mxGeometry y="342" width="200" height="39" as="geometry" />
        </mxCell>
        <mxCell id="ddQr5u84HXoleU1goJ65-52" value="" style="shape=partialRectangle;connectable=0;fillColor=none;top=0;left=0;bottom=0;right=0;editable=1;overflow=hidden;whiteSpace=wrap;html=1;fontSize=16;fontStyle=1;align=left;" parent="ddQr5u84HXoleU1goJ65-51" vertex="1">
          <mxGeometry width="30" height="39" as="geometry">
            <mxRectangle width="30" height="39" as="alternateBounds" />
          </mxGeometry>
        </mxCell>
        <mxCell id="ddQr5u84HXoleU1goJ65-53" value="birthdate" style="shape=partialRectangle;connectable=0;fillColor=none;top=0;left=0;bottom=0;right=0;align=left;spacingLeft=6;overflow=hidden;whiteSpace=wrap;html=1;fontSize=16;fontStyle=1" parent="ddQr5u84HXoleU1goJ65-51" vertex="1">
          <mxGeometry x="30" width="170" height="39" as="geometry">
            <mxRectangle width="170" height="39" as="alternateBounds" />
          </mxGeometry>
        </mxCell>
        <mxCell id="ddQr5u84HXoleU1goJ65-54" value="" style="shape=tableRow;horizontal=0;startSize=0;swimlaneHead=0;swimlaneBody=0;fillColor=none;collapsible=0;dropTarget=0;points=[[0,0.5],[1,0.5]];portConstraint=eastwest;top=0;left=0;right=0;bottom=0;fontSize=16;fontStyle=1;align=left;" parent="ddQr5u84HXoleU1goJ65-16" vertex="1">
          <mxGeometry y="381" width="200" height="57" as="geometry" />
        </mxCell>
        <mxCell id="ddQr5u84HXoleU1goJ65-55" value="" style="shape=partialRectangle;connectable=0;fillColor=none;top=0;left=0;bottom=0;right=0;editable=1;overflow=hidden;whiteSpace=wrap;html=1;fontSize=16;fontStyle=1;align=left;" parent="ddQr5u84HXoleU1goJ65-54" vertex="1">
          <mxGeometry width="30" height="57" as="geometry">
            <mxRectangle width="30" height="57" as="alternateBounds" />
          </mxGeometry>
        </mxCell>
        <mxCell id="ddQr5u84HXoleU1goJ65-56" value="country" style="shape=partialRectangle;connectable=0;fillColor=none;top=0;left=0;bottom=0;right=0;align=left;spacingLeft=6;overflow=hidden;whiteSpace=wrap;html=1;fontSize=16;fontStyle=1" parent="ddQr5u84HXoleU1goJ65-54" vertex="1">
          <mxGeometry x="30" width="170" height="57" as="geometry">
            <mxRectangle width="170" height="57" as="alternateBounds" />
          </mxGeometry>
        </mxCell>
        <mxCell id="ddQr5u84HXoleU1goJ65-58" value="&lt;font style=&quot;font-size: 19px;&quot;&gt;&lt;b&gt;gold.fact_sales&lt;/b&gt;&lt;/font&gt;" style="shape=table;startSize=30;container=1;collapsible=1;childLayout=tableLayout;fixedRows=1;rowLines=0;fontStyle=0;align=center;resizeLast=1;html=1;rounded=1;fillColor=#dae8fc;strokeColor=default;fontSize=16;arcSize=0;" parent="1" vertex="1">
          <mxGeometry x="717" y="270" width="213" height="399" as="geometry" />
        </mxCell>
        <mxCell id="ddQr5u84HXoleU1goJ65-62" value="" style="shape=tableRow;horizontal=0;startSize=0;swimlaneHead=0;swimlaneBody=0;fillColor=none;collapsible=0;dropTarget=0;points=[[0,0.5],[1,0.5]];portConstraint=eastwest;top=0;left=0;right=0;bottom=0;fontSize=16;fontStyle=0;align=center;" parent="ddQr5u84HXoleU1goJ65-58" vertex="1">
          <mxGeometry y="30" width="213" height="39" as="geometry" />
        </mxCell>
        <mxCell id="ddQr5u84HXoleU1goJ65-63" value="" style="shape=partialRectangle;connectable=0;fillColor=none;top=0;left=0;bottom=0;right=0;editable=1;overflow=hidden;whiteSpace=wrap;html=1;fontSize=16;fontStyle=0;align=center;" parent="ddQr5u84HXoleU1goJ65-62" vertex="1">
          <mxGeometry width="30" height="39" as="geometry">
            <mxRectangle width="30" height="39" as="alternateBounds" />
          </mxGeometry>
        </mxCell>
        <mxCell id="ddQr5u84HXoleU1goJ65-64" value="order_number" style="shape=partialRectangle;connectable=0;fillColor=none;top=0;left=0;bottom=0;right=0;align=left;spacingLeft=6;overflow=hidden;whiteSpace=wrap;html=1;fontSize=16;fontStyle=1" parent="ddQr5u84HXoleU1goJ65-62" vertex="1">
          <mxGeometry x="30" width="183" height="39" as="geometry">
            <mxRectangle width="183" height="39" as="alternateBounds" />
          </mxGeometry>
        </mxCell>
        <mxCell id="ddQr5u84HXoleU1goJ65-65" value="" style="shape=tableRow;horizontal=0;startSize=0;swimlaneHead=0;swimlaneBody=0;fillColor=none;collapsible=0;dropTarget=0;points=[[0,0.5],[1,0.5]];portConstraint=eastwest;top=0;left=0;right=0;bottom=0;fontSize=16;fontStyle=1;align=left;" parent="ddQr5u84HXoleU1goJ65-58" vertex="1">
          <mxGeometry y="69" width="213" height="39" as="geometry" />
        </mxCell>
        <mxCell id="ddQr5u84HXoleU1goJ65-66" value="&lt;span&gt;FK1&lt;/span&gt;" style="shape=partialRectangle;connectable=0;fillColor=none;top=0;left=0;bottom=0;right=0;editable=1;overflow=hidden;whiteSpace=wrap;html=1;fontSize=16;fontStyle=1;align=left;" parent="ddQr5u84HXoleU1goJ65-65" vertex="1">
          <mxGeometry width="30" height="39" as="geometry">
            <mxRectangle width="30" height="39" as="alternateBounds" />
          </mxGeometry>
        </mxCell>
        <mxCell id="ddQr5u84HXoleU1goJ65-67" value="product_key" style="shape=partialRectangle;connectable=0;fillColor=none;top=0;left=0;bottom=0;right=0;align=left;spacingLeft=6;overflow=hidden;whiteSpace=wrap;html=1;fontSize=16;fontStyle=1" parent="ddQr5u84HXoleU1goJ65-65" vertex="1">
          <mxGeometry x="30" width="183" height="39" as="geometry">
            <mxRectangle width="183" height="39" as="alternateBounds" />
          </mxGeometry>
        </mxCell>
        <mxCell id="ddQr5u84HXoleU1goJ65-68" value="" style="shape=tableRow;horizontal=0;startSize=0;swimlaneHead=0;swimlaneBody=0;fillColor=none;collapsible=0;dropTarget=0;points=[[0,0.5],[1,0.5]];portConstraint=eastwest;top=0;left=0;right=0;bottom=0;fontSize=16;fontStyle=1;align=left;" parent="ddQr5u84HXoleU1goJ65-58" vertex="1">
          <mxGeometry y="108" width="213" height="39" as="geometry" />
        </mxCell>
        <mxCell id="ddQr5u84HXoleU1goJ65-69" value="FK2" style="shape=partialRectangle;connectable=0;fillColor=none;top=0;left=0;bottom=0;right=0;editable=1;overflow=hidden;whiteSpace=wrap;html=1;fontSize=16;fontStyle=1;align=left;" parent="ddQr5u84HXoleU1goJ65-68" vertex="1">
          <mxGeometry width="30" height="39" as="geometry">
            <mxRectangle width="30" height="39" as="alternateBounds" />
          </mxGeometry>
        </mxCell>
        <mxCell id="ddQr5u84HXoleU1goJ65-70" value="customer_key" style="shape=partialRectangle;connectable=0;fillColor=none;top=0;left=0;bottom=0;right=0;align=left;spacingLeft=6;overflow=hidden;whiteSpace=wrap;html=1;fontSize=16;fontStyle=1" parent="ddQr5u84HXoleU1goJ65-68" vertex="1">
          <mxGeometry x="30" width="183" height="39" as="geometry">
            <mxRectangle width="183" height="39" as="alternateBounds" />
          </mxGeometry>
        </mxCell>
        <mxCell id="ddQr5u84HXoleU1goJ65-71" value="" style="shape=tableRow;horizontal=0;startSize=0;swimlaneHead=0;swimlaneBody=0;fillColor=none;collapsible=0;dropTarget=0;points=[[0,0.5],[1,0.5]];portConstraint=eastwest;top=0;left=0;right=0;bottom=0;fontSize=16;fontStyle=1;align=left;" parent="ddQr5u84HXoleU1goJ65-58" vertex="1">
          <mxGeometry y="147" width="213" height="39" as="geometry" />
        </mxCell>
        <mxCell id="ddQr5u84HXoleU1goJ65-72" value="" style="shape=partialRectangle;connectable=0;fillColor=none;top=0;left=0;bottom=0;right=0;editable=1;overflow=hidden;whiteSpace=wrap;html=1;fontSize=16;fontStyle=1;align=left;" parent="ddQr5u84HXoleU1goJ65-71" vertex="1">
          <mxGeometry width="30" height="39" as="geometry">
            <mxRectangle width="30" height="39" as="alternateBounds" />
          </mxGeometry>
        </mxCell>
        <mxCell id="ddQr5u84HXoleU1goJ65-73" value="order_date" style="shape=partialRectangle;connectable=0;fillColor=none;top=0;left=0;bottom=0;right=0;align=left;spacingLeft=6;overflow=hidden;whiteSpace=wrap;html=1;fontSize=16;fontStyle=1" parent="ddQr5u84HXoleU1goJ65-71" vertex="1">
          <mxGeometry x="30" width="183" height="39" as="geometry">
            <mxRectangle width="183" height="39" as="alternateBounds" />
          </mxGeometry>
        </mxCell>
        <mxCell id="ddQr5u84HXoleU1goJ65-74" value="" style="shape=tableRow;horizontal=0;startSize=0;swimlaneHead=0;swimlaneBody=0;fillColor=none;collapsible=0;dropTarget=0;points=[[0,0.5],[1,0.5]];portConstraint=eastwest;top=0;left=0;right=0;bottom=0;fontSize=16;fontStyle=1;align=left;" parent="ddQr5u84HXoleU1goJ65-58" vertex="1">
          <mxGeometry y="186" width="213" height="39" as="geometry" />
        </mxCell>
        <mxCell id="ddQr5u84HXoleU1goJ65-75" value="" style="shape=partialRectangle;connectable=0;fillColor=none;top=0;left=0;bottom=0;right=0;editable=1;overflow=hidden;whiteSpace=wrap;html=1;fontSize=16;fontStyle=1;align=left;" parent="ddQr5u84HXoleU1goJ65-74" vertex="1">
          <mxGeometry width="30" height="39" as="geometry">
            <mxRectangle width="30" height="39" as="alternateBounds" />
          </mxGeometry>
        </mxCell>
        <mxCell id="ddQr5u84HXoleU1goJ65-76" value="shipping_date" style="shape=partialRectangle;connectable=0;fillColor=none;top=0;left=0;bottom=0;right=0;align=left;spacingLeft=6;overflow=hidden;whiteSpace=wrap;html=1;fontSize=16;fontStyle=1" parent="ddQr5u84HXoleU1goJ65-74" vertex="1">
          <mxGeometry x="30" width="183" height="39" as="geometry">
            <mxRectangle width="183" height="39" as="alternateBounds" />
          </mxGeometry>
        </mxCell>
        <mxCell id="ddQr5u84HXoleU1goJ65-77" value="" style="shape=tableRow;horizontal=0;startSize=0;swimlaneHead=0;swimlaneBody=0;fillColor=none;collapsible=0;dropTarget=0;points=[[0,0.5],[1,0.5]];portConstraint=eastwest;top=0;left=0;right=0;bottom=0;fontSize=16;fontStyle=1;align=left;" parent="ddQr5u84HXoleU1goJ65-58" vertex="1">
          <mxGeometry y="225" width="213" height="39" as="geometry" />
        </mxCell>
        <mxCell id="ddQr5u84HXoleU1goJ65-78" value="" style="shape=partialRectangle;connectable=0;fillColor=none;top=0;left=0;bottom=0;right=0;editable=1;overflow=hidden;whiteSpace=wrap;html=1;fontSize=16;fontStyle=1;align=left;" parent="ddQr5u84HXoleU1goJ65-77" vertex="1">
          <mxGeometry width="30" height="39" as="geometry">
            <mxRectangle width="30" height="39" as="alternateBounds" />
          </mxGeometry>
        </mxCell>
        <mxCell id="ddQr5u84HXoleU1goJ65-79" value="due_date" style="shape=partialRectangle;connectable=0;fillColor=none;top=0;left=0;bottom=0;right=0;align=left;spacingLeft=6;overflow=hidden;whiteSpace=wrap;html=1;fontSize=16;fontStyle=1" parent="ddQr5u84HXoleU1goJ65-77" vertex="1">
          <mxGeometry x="30" width="183" height="39" as="geometry">
            <mxRectangle width="183" height="39" as="alternateBounds" />
          </mxGeometry>
        </mxCell>
        <mxCell id="ddQr5u84HXoleU1goJ65-80" value="" style="shape=tableRow;horizontal=0;startSize=0;swimlaneHead=0;swimlaneBody=0;fillColor=none;collapsible=0;dropTarget=0;points=[[0,0.5],[1,0.5]];portConstraint=eastwest;top=0;left=0;right=0;bottom=0;fontSize=16;fontStyle=1;align=left;" parent="ddQr5u84HXoleU1goJ65-58" vertex="1">
          <mxGeometry y="264" width="213" height="39" as="geometry" />
        </mxCell>
        <mxCell id="ddQr5u84HXoleU1goJ65-81" value="" style="shape=partialRectangle;connectable=0;fillColor=none;top=0;left=0;bottom=0;right=0;editable=1;overflow=hidden;whiteSpace=wrap;html=1;fontSize=16;fontStyle=1;align=left;" parent="ddQr5u84HXoleU1goJ65-80" vertex="1">
          <mxGeometry width="30" height="39" as="geometry">
            <mxRectangle width="30" height="39" as="alternateBounds" />
          </mxGeometry>
        </mxCell>
        <mxCell id="ddQr5u84HXoleU1goJ65-82" value="sales_amount" style="shape=partialRectangle;connectable=0;fillColor=none;top=0;left=0;bottom=0;right=0;align=left;spacingLeft=6;overflow=hidden;whiteSpace=wrap;html=1;fontSize=16;fontStyle=1" parent="ddQr5u84HXoleU1goJ65-80" vertex="1">
          <mxGeometry x="30" width="183" height="39" as="geometry">
            <mxRectangle width="183" height="39" as="alternateBounds" />
          </mxGeometry>
        </mxCell>
        <mxCell id="ddQr5u84HXoleU1goJ65-83" value="" style="shape=tableRow;horizontal=0;startSize=0;swimlaneHead=0;swimlaneBody=0;fillColor=none;collapsible=0;dropTarget=0;points=[[0,0.5],[1,0.5]];portConstraint=eastwest;top=0;left=0;right=0;bottom=0;fontSize=16;fontStyle=1;align=left;" parent="ddQr5u84HXoleU1goJ65-58" vertex="1">
          <mxGeometry y="303" width="213" height="39" as="geometry" />
        </mxCell>
        <mxCell id="ddQr5u84HXoleU1goJ65-84" value="" style="shape=partialRectangle;connectable=0;fillColor=none;top=0;left=0;bottom=0;right=0;editable=1;overflow=hidden;whiteSpace=wrap;html=1;fontSize=16;fontStyle=1;align=left;" parent="ddQr5u84HXoleU1goJ65-83" vertex="1">
          <mxGeometry width="30" height="39" as="geometry">
            <mxRectangle width="30" height="39" as="alternateBounds" />
          </mxGeometry>
        </mxCell>
        <mxCell id="ddQr5u84HXoleU1goJ65-85" value="quantity" style="shape=partialRectangle;connectable=0;fillColor=none;top=0;left=0;bottom=0;right=0;align=left;spacingLeft=6;overflow=hidden;whiteSpace=wrap;html=1;fontSize=16;fontStyle=1" parent="ddQr5u84HXoleU1goJ65-83" vertex="1">
          <mxGeometry x="30" width="183" height="39" as="geometry">
            <mxRectangle width="183" height="39" as="alternateBounds" />
          </mxGeometry>
        </mxCell>
        <mxCell id="ddQr5u84HXoleU1goJ65-86" value="" style="shape=tableRow;horizontal=0;startSize=0;swimlaneHead=0;swimlaneBody=0;fillColor=none;collapsible=0;dropTarget=0;points=[[0,0.5],[1,0.5]];portConstraint=eastwest;top=0;left=0;right=0;bottom=0;fontSize=16;fontStyle=1;align=left;" parent="ddQr5u84HXoleU1goJ65-58" vertex="1">
          <mxGeometry y="342" width="213" height="57" as="geometry" />
        </mxCell>
        <mxCell id="ddQr5u84HXoleU1goJ65-87" value="" style="shape=partialRectangle;connectable=0;fillColor=none;top=0;left=0;bottom=0;right=0;editable=1;overflow=hidden;whiteSpace=wrap;html=1;fontSize=16;fontStyle=1;align=left;" parent="ddQr5u84HXoleU1goJ65-86" vertex="1">
          <mxGeometry width="30" height="57" as="geometry">
            <mxRectangle width="30" height="57" as="alternateBounds" />
          </mxGeometry>
        </mxCell>
        <mxCell id="ddQr5u84HXoleU1goJ65-88" value="price" style="shape=partialRectangle;connectable=0;fillColor=none;top=0;left=0;bottom=0;right=0;align=left;spacingLeft=6;overflow=hidden;whiteSpace=wrap;html=1;fontSize=16;fontStyle=1" parent="ddQr5u84HXoleU1goJ65-86" vertex="1">
          <mxGeometry x="30" width="183" height="57" as="geometry">
            <mxRectangle width="183" height="57" as="alternateBounds" />
          </mxGeometry>
        </mxCell>
        <mxCell id="ddQr5u84HXoleU1goJ65-89" value="&lt;b&gt;&lt;font style=&quot;font-size: 19px;&quot;&gt;gold.dim_products&lt;/font&gt;&lt;/b&gt;" style="shape=table;startSize=30;container=1;collapsible=1;childLayout=tableLayout;fixedRows=1;rowLines=0;fontStyle=0;align=center;resizeLast=1;html=1;rounded=1;fillColor=#fff2cc;strokeColor=default;fontSize=14;arcSize=0;" parent="1" vertex="1">
          <mxGeometry x="1090" y="260" width="220" height="495" as="geometry" />
        </mxCell>
        <mxCell id="ddQr5u84HXoleU1goJ65-90" value="" style="shape=tableRow;horizontal=0;startSize=0;swimlaneHead=0;swimlaneBody=0;fillColor=none;collapsible=0;dropTarget=0;points=[[0,0.5],[1,0.5]];portConstraint=eastwest;top=0;left=0;right=0;bottom=1;fontSize=16;fontStyle=0;align=center;" parent="ddQr5u84HXoleU1goJ65-89" vertex="1">
          <mxGeometry y="30" width="220" height="39" as="geometry" />
        </mxCell>
        <mxCell id="ddQr5u84HXoleU1goJ65-91" value="&lt;b&gt;PK&lt;/b&gt;" style="shape=partialRectangle;connectable=0;fillColor=none;top=0;left=0;bottom=0;right=0;fontStyle=0;overflow=hidden;whiteSpace=wrap;html=1;fontSize=16;align=left;" parent="ddQr5u84HXoleU1goJ65-90" vertex="1">
          <mxGeometry width="30" height="39" as="geometry">
            <mxRectangle width="30" height="39" as="alternateBounds" />
          </mxGeometry>
        </mxCell>
        <mxCell id="ddQr5u84HXoleU1goJ65-92" value="&lt;b&gt;product_key&lt;/b&gt;" style="shape=partialRectangle;connectable=0;fillColor=none;top=0;left=0;bottom=0;right=0;align=left;spacingLeft=6;fontStyle=4;overflow=hidden;whiteSpace=wrap;html=1;fontSize=16;" parent="ddQr5u84HXoleU1goJ65-90" vertex="1">
          <mxGeometry x="30" width="190" height="39" as="geometry">
            <mxRectangle width="190" height="39" as="alternateBounds" />
          </mxGeometry>
        </mxCell>
        <mxCell id="ddQr5u84HXoleU1goJ65-93" value="" style="shape=tableRow;horizontal=0;startSize=0;swimlaneHead=0;swimlaneBody=0;fillColor=none;collapsible=0;dropTarget=0;points=[[0,0.5],[1,0.5]];portConstraint=eastwest;top=0;left=0;right=0;bottom=0;fontSize=16;fontStyle=1;align=left;" parent="ddQr5u84HXoleU1goJ65-89" vertex="1">
          <mxGeometry y="69" width="220" height="39" as="geometry" />
        </mxCell>
        <mxCell id="ddQr5u84HXoleU1goJ65-94" value="" style="shape=partialRectangle;connectable=0;fillColor=none;top=0;left=0;bottom=0;right=0;editable=1;overflow=hidden;whiteSpace=wrap;html=1;fontSize=16;fontStyle=1;align=left;" parent="ddQr5u84HXoleU1goJ65-93" vertex="1">
          <mxGeometry width="30" height="39" as="geometry">
            <mxRectangle width="30" height="39" as="alternateBounds" />
          </mxGeometry>
        </mxCell>
        <mxCell id="ddQr5u84HXoleU1goJ65-95" value="product_id" style="shape=partialRectangle;connectable=0;fillColor=none;top=0;left=0;bottom=0;right=0;align=left;spacingLeft=6;overflow=hidden;whiteSpace=wrap;html=1;fontSize=16;fontStyle=1" parent="ddQr5u84HXoleU1goJ65-93" vertex="1">
          <mxGeometry x="30" width="190" height="39" as="geometry">
            <mxRectangle width="190" height="39" as="alternateBounds" />
          </mxGeometry>
        </mxCell>
        <mxCell id="ddQr5u84HXoleU1goJ65-96" value="" style="shape=tableRow;horizontal=0;startSize=0;swimlaneHead=0;swimlaneBody=0;fillColor=none;collapsible=0;dropTarget=0;points=[[0,0.5],[1,0.5]];portConstraint=eastwest;top=0;left=0;right=0;bottom=0;fontSize=16;fontStyle=1;align=left;" parent="ddQr5u84HXoleU1goJ65-89" vertex="1">
          <mxGeometry y="108" width="220" height="39" as="geometry" />
        </mxCell>
        <mxCell id="ddQr5u84HXoleU1goJ65-97" value="" style="shape=partialRectangle;connectable=0;fillColor=none;top=0;left=0;bottom=0;right=0;editable=1;overflow=hidden;whiteSpace=wrap;html=1;fontSize=16;fontStyle=1;align=left;" parent="ddQr5u84HXoleU1goJ65-96" vertex="1">
          <mxGeometry width="30" height="39" as="geometry">
            <mxRectangle width="30" height="39" as="alternateBounds" />
          </mxGeometry>
        </mxCell>
        <mxCell id="ddQr5u84HXoleU1goJ65-98" value="product_number" style="shape=partialRectangle;connectable=0;fillColor=none;top=0;left=0;bottom=0;right=0;align=left;spacingLeft=6;overflow=hidden;whiteSpace=wrap;html=1;fontSize=16;fontStyle=1" parent="ddQr5u84HXoleU1goJ65-96" vertex="1">
          <mxGeometry x="30" width="190" height="39" as="geometry">
            <mxRectangle width="190" height="39" as="alternateBounds" />
          </mxGeometry>
        </mxCell>
        <mxCell id="ddQr5u84HXoleU1goJ65-99" value="" style="shape=tableRow;horizontal=0;startSize=0;swimlaneHead=0;swimlaneBody=0;fillColor=none;collapsible=0;dropTarget=0;points=[[0,0.5],[1,0.5]];portConstraint=eastwest;top=0;left=0;right=0;bottom=0;fontSize=16;fontStyle=1;align=left;" parent="ddQr5u84HXoleU1goJ65-89" vertex="1">
          <mxGeometry y="147" width="220" height="39" as="geometry" />
        </mxCell>
        <mxCell id="ddQr5u84HXoleU1goJ65-100" value="" style="shape=partialRectangle;connectable=0;fillColor=none;top=0;left=0;bottom=0;right=0;editable=1;overflow=hidden;whiteSpace=wrap;html=1;fontSize=16;fontStyle=1;align=left;" parent="ddQr5u84HXoleU1goJ65-99" vertex="1">
          <mxGeometry width="30" height="39" as="geometry">
            <mxRectangle width="30" height="39" as="alternateBounds" />
          </mxGeometry>
        </mxCell>
        <mxCell id="ddQr5u84HXoleU1goJ65-101" value="product_name" style="shape=partialRectangle;connectable=0;fillColor=none;top=0;left=0;bottom=0;right=0;align=left;spacingLeft=6;overflow=hidden;whiteSpace=wrap;html=1;fontSize=16;fontStyle=1" parent="ddQr5u84HXoleU1goJ65-99" vertex="1">
          <mxGeometry x="30" width="190" height="39" as="geometry">
            <mxRectangle width="190" height="39" as="alternateBounds" />
          </mxGeometry>
        </mxCell>
        <mxCell id="ddQr5u84HXoleU1goJ65-102" value="" style="shape=tableRow;horizontal=0;startSize=0;swimlaneHead=0;swimlaneBody=0;fillColor=none;collapsible=0;dropTarget=0;points=[[0,0.5],[1,0.5]];portConstraint=eastwest;top=0;left=0;right=0;bottom=0;fontSize=16;fontStyle=1;align=left;" parent="ddQr5u84HXoleU1goJ65-89" vertex="1">
          <mxGeometry y="186" width="220" height="39" as="geometry" />
        </mxCell>
        <mxCell id="ddQr5u84HXoleU1goJ65-103" value="" style="shape=partialRectangle;connectable=0;fillColor=none;top=0;left=0;bottom=0;right=0;editable=1;overflow=hidden;whiteSpace=wrap;html=1;fontSize=16;fontStyle=1;align=left;" parent="ddQr5u84HXoleU1goJ65-102" vertex="1">
          <mxGeometry width="30" height="39" as="geometry">
            <mxRectangle width="30" height="39" as="alternateBounds" />
          </mxGeometry>
        </mxCell>
        <mxCell id="ddQr5u84HXoleU1goJ65-104" value="category_id" style="shape=partialRectangle;connectable=0;fillColor=none;top=0;left=0;bottom=0;right=0;align=left;spacingLeft=6;overflow=hidden;whiteSpace=wrap;html=1;fontSize=16;fontStyle=1" parent="ddQr5u84HXoleU1goJ65-102" vertex="1">
          <mxGeometry x="30" width="190" height="39" as="geometry">
            <mxRectangle width="190" height="39" as="alternateBounds" />
          </mxGeometry>
        </mxCell>
        <mxCell id="ddQr5u84HXoleU1goJ65-105" value="" style="shape=tableRow;horizontal=0;startSize=0;swimlaneHead=0;swimlaneBody=0;fillColor=none;collapsible=0;dropTarget=0;points=[[0,0.5],[1,0.5]];portConstraint=eastwest;top=0;left=0;right=0;bottom=0;fontSize=16;fontStyle=1;align=left;" parent="ddQr5u84HXoleU1goJ65-89" vertex="1">
          <mxGeometry y="225" width="220" height="39" as="geometry" />
        </mxCell>
        <mxCell id="ddQr5u84HXoleU1goJ65-106" value="" style="shape=partialRectangle;connectable=0;fillColor=none;top=0;left=0;bottom=0;right=0;editable=1;overflow=hidden;whiteSpace=wrap;html=1;fontSize=16;fontStyle=1;align=left;" parent="ddQr5u84HXoleU1goJ65-105" vertex="1">
          <mxGeometry width="30" height="39" as="geometry">
            <mxRectangle width="30" height="39" as="alternateBounds" />
          </mxGeometry>
        </mxCell>
        <mxCell id="ddQr5u84HXoleU1goJ65-107" value="category" style="shape=partialRectangle;connectable=0;fillColor=none;top=0;left=0;bottom=0;right=0;align=left;spacingLeft=6;overflow=hidden;whiteSpace=wrap;html=1;fontSize=16;fontStyle=1" parent="ddQr5u84HXoleU1goJ65-105" vertex="1">
          <mxGeometry x="30" width="190" height="39" as="geometry">
            <mxRectangle width="190" height="39" as="alternateBounds" />
          </mxGeometry>
        </mxCell>
        <mxCell id="ddQr5u84HXoleU1goJ65-108" value="" style="shape=tableRow;horizontal=0;startSize=0;swimlaneHead=0;swimlaneBody=0;fillColor=none;collapsible=0;dropTarget=0;points=[[0,0.5],[1,0.5]];portConstraint=eastwest;top=0;left=0;right=0;bottom=0;fontSize=16;fontStyle=1;align=left;" parent="ddQr5u84HXoleU1goJ65-89" vertex="1">
          <mxGeometry y="264" width="220" height="39" as="geometry" />
        </mxCell>
        <mxCell id="ddQr5u84HXoleU1goJ65-109" value="" style="shape=partialRectangle;connectable=0;fillColor=none;top=0;left=0;bottom=0;right=0;editable=1;overflow=hidden;whiteSpace=wrap;html=1;fontSize=16;fontStyle=1;align=left;" parent="ddQr5u84HXoleU1goJ65-108" vertex="1">
          <mxGeometry width="30" height="39" as="geometry">
            <mxRectangle width="30" height="39" as="alternateBounds" />
          </mxGeometry>
        </mxCell>
        <mxCell id="ddQr5u84HXoleU1goJ65-110" value="subcategory" style="shape=partialRectangle;connectable=0;fillColor=none;top=0;left=0;bottom=0;right=0;align=left;spacingLeft=6;overflow=hidden;whiteSpace=wrap;html=1;fontSize=16;fontStyle=1" parent="ddQr5u84HXoleU1goJ65-108" vertex="1">
          <mxGeometry x="30" width="190" height="39" as="geometry">
            <mxRectangle width="190" height="39" as="alternateBounds" />
          </mxGeometry>
        </mxCell>
        <mxCell id="ddQr5u84HXoleU1goJ65-111" value="" style="shape=tableRow;horizontal=0;startSize=0;swimlaneHead=0;swimlaneBody=0;fillColor=none;collapsible=0;dropTarget=0;points=[[0,0.5],[1,0.5]];portConstraint=eastwest;top=0;left=0;right=0;bottom=0;fontSize=16;fontStyle=1;align=left;" parent="ddQr5u84HXoleU1goJ65-89" vertex="1">
          <mxGeometry y="303" width="220" height="39" as="geometry" />
        </mxCell>
        <mxCell id="ddQr5u84HXoleU1goJ65-112" value="" style="shape=partialRectangle;connectable=0;fillColor=none;top=0;left=0;bottom=0;right=0;editable=1;overflow=hidden;whiteSpace=wrap;html=1;fontSize=16;fontStyle=1;align=left;" parent="ddQr5u84HXoleU1goJ65-111" vertex="1">
          <mxGeometry width="30" height="39" as="geometry">
            <mxRectangle width="30" height="39" as="alternateBounds" />
          </mxGeometry>
        </mxCell>
        <mxCell id="ddQr5u84HXoleU1goJ65-113" value="maintenance" style="shape=partialRectangle;connectable=0;fillColor=none;top=0;left=0;bottom=0;right=0;align=left;spacingLeft=6;overflow=hidden;whiteSpace=wrap;html=1;fontSize=16;fontStyle=1" parent="ddQr5u84HXoleU1goJ65-111" vertex="1">
          <mxGeometry x="30" width="190" height="39" as="geometry">
            <mxRectangle width="190" height="39" as="alternateBounds" />
          </mxGeometry>
        </mxCell>
        <mxCell id="ddQr5u84HXoleU1goJ65-114" value="" style="shape=tableRow;horizontal=0;startSize=0;swimlaneHead=0;swimlaneBody=0;fillColor=none;collapsible=0;dropTarget=0;points=[[0,0.5],[1,0.5]];portConstraint=eastwest;top=0;left=0;right=0;bottom=0;fontSize=16;fontStyle=1;align=left;" parent="ddQr5u84HXoleU1goJ65-89" vertex="1">
          <mxGeometry y="342" width="220" height="39" as="geometry" />
        </mxCell>
        <mxCell id="ddQr5u84HXoleU1goJ65-115" value="" style="shape=partialRectangle;connectable=0;fillColor=none;top=0;left=0;bottom=0;right=0;editable=1;overflow=hidden;whiteSpace=wrap;html=1;fontSize=16;fontStyle=1;align=left;" parent="ddQr5u84HXoleU1goJ65-114" vertex="1">
          <mxGeometry width="30" height="39" as="geometry">
            <mxRectangle width="30" height="39" as="alternateBounds" />
          </mxGeometry>
        </mxCell>
        <mxCell id="ddQr5u84HXoleU1goJ65-116" value="cost" style="shape=partialRectangle;connectable=0;fillColor=none;top=0;left=0;bottom=0;right=0;align=left;spacingLeft=6;overflow=hidden;whiteSpace=wrap;html=1;fontSize=16;fontStyle=1" parent="ddQr5u84HXoleU1goJ65-114" vertex="1">
          <mxGeometry x="30" width="190" height="39" as="geometry">
            <mxRectangle width="190" height="39" as="alternateBounds" />
          </mxGeometry>
        </mxCell>
        <mxCell id="ddQr5u84HXoleU1goJ65-117" value="" style="shape=tableRow;horizontal=0;startSize=0;swimlaneHead=0;swimlaneBody=0;fillColor=none;collapsible=0;dropTarget=0;points=[[0,0.5],[1,0.5]];portConstraint=eastwest;top=0;left=0;right=0;bottom=0;fontSize=16;fontStyle=1;align=left;" parent="ddQr5u84HXoleU1goJ65-89" vertex="1">
          <mxGeometry y="381" width="220" height="57" as="geometry" />
        </mxCell>
        <mxCell id="ddQr5u84HXoleU1goJ65-118" value="" style="shape=partialRectangle;connectable=0;fillColor=none;top=0;left=0;bottom=0;right=0;editable=1;overflow=hidden;whiteSpace=wrap;html=1;fontSize=16;fontStyle=1;align=left;" parent="ddQr5u84HXoleU1goJ65-117" vertex="1">
          <mxGeometry width="30" height="57" as="geometry">
            <mxRectangle width="30" height="57" as="alternateBounds" />
          </mxGeometry>
        </mxCell>
        <mxCell id="ddQr5u84HXoleU1goJ65-119" value="product_line" style="shape=partialRectangle;connectable=0;fillColor=none;top=0;left=0;bottom=0;right=0;align=left;spacingLeft=6;overflow=hidden;whiteSpace=wrap;html=1;fontSize=16;fontStyle=1" parent="ddQr5u84HXoleU1goJ65-117" vertex="1">
          <mxGeometry x="30" width="190" height="57" as="geometry">
            <mxRectangle width="190" height="57" as="alternateBounds" />
          </mxGeometry>
        </mxCell>
        <mxCell id="ddQr5u84HXoleU1goJ65-120" value="" style="shape=tableRow;horizontal=0;startSize=0;swimlaneHead=0;swimlaneBody=0;fillColor=none;collapsible=0;dropTarget=0;points=[[0,0.5],[1,0.5]];portConstraint=eastwest;top=0;left=0;right=0;bottom=0;fontSize=16;fontStyle=1;align=left;" parent="ddQr5u84HXoleU1goJ65-89" vertex="1">
          <mxGeometry y="438" width="220" height="57" as="geometry" />
        </mxCell>
        <mxCell id="ddQr5u84HXoleU1goJ65-121" value="" style="shape=partialRectangle;connectable=0;fillColor=none;top=0;left=0;bottom=0;right=0;editable=1;overflow=hidden;whiteSpace=wrap;html=1;fontSize=16;fontStyle=1;align=left;" parent="ddQr5u84HXoleU1goJ65-120" vertex="1">
          <mxGeometry width="30" height="57" as="geometry">
            <mxRectangle width="30" height="57" as="alternateBounds" />
          </mxGeometry>
        </mxCell>
        <mxCell id="ddQr5u84HXoleU1goJ65-122" value="start_date" style="shape=partialRectangle;connectable=0;fillColor=none;top=0;left=0;bottom=0;right=0;align=left;spacingLeft=6;overflow=hidden;whiteSpace=wrap;html=1;fontSize=16;fontStyle=1" parent="ddQr5u84HXoleU1goJ65-120" vertex="1">
          <mxGeometry x="30" width="190" height="57" as="geometry">
            <mxRectangle width="190" height="57" as="alternateBounds" />
          </mxGeometry>
        </mxCell>
        <mxCell id="ddQr5u84HXoleU1goJ65-123" value="" style="edgeStyle=entityRelationEdgeStyle;fontSize=12;html=1;endArrow=ERzeroToMany;startArrow=ERmandOne;rounded=0;exitX=1;exitY=0.5;exitDx=0;exitDy=0;entryX=0;entryY=0.5;entryDx=0;entryDy=0;strokeWidth=2;" parent="1" source="ddQr5u84HXoleU1goJ65-17" target="ddQr5u84HXoleU1goJ65-68" edge="1">
          <mxGeometry width="100" height="100" relative="1" as="geometry">
            <mxPoint x="590" y="350" as="sourcePoint" />
            <mxPoint x="690" y="250" as="targetPoint" />
            <Array as="points">
              <mxPoint x="640" y="150" />
            </Array>
          </mxGeometry>
        </mxCell>
        <mxCell id="ddQr5u84HXoleU1goJ65-124" value="" style="edgeStyle=entityRelationEdgeStyle;fontSize=12;html=1;endArrow=ERzeroToMany;startArrow=ERmandOne;rounded=0;entryX=1;entryY=0.5;entryDx=0;entryDy=0;strokeWidth=2;" parent="1" source="ddQr5u84HXoleU1goJ65-90" target="ddQr5u84HXoleU1goJ65-65" edge="1">
          <mxGeometry width="100" height="100" relative="1" as="geometry">
            <mxPoint x="970" y="500" as="sourcePoint" />
            <mxPoint x="1070" y="400" as="targetPoint" />
          </mxGeometry>
        </mxCell>
        <mxCell id="ddQr5u84HXoleU1goJ65-125" value="&lt;font style=&quot;font-size: 17px;&quot;&gt;&lt;u style=&quot;&quot;&gt;&lt;b style=&quot;&quot;&gt;Sales Calculations&lt;/b&gt;&lt;/u&gt;&lt;/font&gt;&lt;div&gt;&lt;span style=&quot;font-size: 17px;&quot;&gt;&lt;u style=&quot;&quot;&gt;&lt;i style=&quot;&quot;&gt;&lt;br&gt;&lt;/i&gt;&lt;/u&gt;&lt;/span&gt;&lt;/div&gt;&lt;div&gt;&lt;font style=&quot;font-size: 16px;&quot;&gt;Sales=Quantity * Price&lt;br&gt;&lt;/font&gt;&lt;div&gt;&lt;br&gt;&lt;/div&gt;&lt;/div&gt;" style="text;html=1;align=center;verticalAlign=middle;whiteSpace=wrap;rounded=0;shadow=0;fillColor=default;" parent="1" vertex="1">
          <mxGeometry x="840" y="690" width="190" height="90" as="geometry" />
        </mxCell>
        <mxCell id="ddQr5u84HXoleU1goJ65-126" value="" style="endArrow=classic;html=1;rounded=0;exitX=0.347;exitY=-0.024;exitDx=0;exitDy=0;exitPerimeter=0;" parent="1" source="ddQr5u84HXoleU1goJ65-125" target="ddQr5u84HXoleU1goJ65-80" edge="1">
          <mxGeometry width="50" height="50" relative="1" as="geometry">
            <mxPoint x="1010" y="460" as="sourcePoint" />
            <mxPoint x="1060" y="580" as="targetPoint" />
          </mxGeometry>
        </mxCell>
        <mxCell id="ddQr5u84HXoleU1goJ65-127" value="&lt;div&gt;&lt;div&gt;&lt;font style=&quot;font-size: 25px;&quot;&gt;&lt;span style=&quot;font-weight: bold;&quot;&gt;Sales Data Mart&lt;/span&gt; &lt;/font&gt;&lt;span style=&quot;font-size: 17px;&quot;&gt;(Star Schema)&amp;nbsp;&lt;/span&gt;&lt;/div&gt;&lt;/div&gt;" style="text;html=1;align=center;verticalAlign=middle;whiteSpace=wrap;rounded=0;shadow=0;fillColor=default;" parent="1" vertex="1">
          <mxGeometry x="260" y="140" width="350" height="90" as="geometry" />
        </mxCell>
      </root>
    </mxGraphModel>
  </diagram>
</mxfile>
